<svg width="344" height="68" viewBox="0 0 344 68" fill="none" xmlns="http://www.w3.org/2000/svg">
<g clip-path="url(#clip0_806_40)">
<path d="M82.8019 2.80762H83.3241C84.4579 3.08985 85.0249 3.65565 85.0249 4.50502V44.2752C84.7414 45.4068 84.1745 45.9726 83.3241 45.9726H82.8019C81.668 45.6897 81.1011 45.1239 81.1011 44.2752V4.50302C81.3859 3.37275 81.9528 2.80762 82.8019 2.80762Z" fill="white"/>
<path d="M94.5711 13.4356H95.0944C96.2282 13.7178 96.7951 14.2836 96.7951 15.133V30.9089C96.7951 35.2562 97.8403 38.1252 99.9306 39.5157C101.629 41.08 103.633 41.8624 105.941 41.8631C109.665 41.8631 112.452 39.9504 114.303 36.1249C114.738 35.1264 114.956 33.7355 114.956 31.9523V15.131C115.239 13.9994 115.806 13.4336 116.657 13.4336H117.179C118.313 13.7158 118.88 14.2816 118.88 15.131V43.9489C118.597 45.0805 118.03 45.6463 117.179 45.6463H116.653C115.519 45.3648 114.952 44.799 114.952 43.9489V42.2515C112.165 44.5986 109.29 45.7721 106.328 45.7721H105.414C101.298 45.7721 97.7706 43.7725 94.8312 39.7733C93.5246 37.4915 92.8713 35.2313 92.8713 32.9927V15.131C93.1548 14.0007 93.7214 13.4356 94.5711 13.4356Z" fill="white"/>
<path d="M140.509 13.4355H141.424C144.492 13.4355 147.366 14.6527 150.048 17.087C151.267 18.369 151.877 19.1515 151.876 19.4344C154.944 15.4358 158.516 13.4362 162.591 13.4355H163.506C167.752 13.4355 171.323 15.522 174.22 19.695C175.439 21.825 176.048 23.9984 176.048 26.215V44.0797C175.765 45.2113 175.198 45.7771 174.348 45.7771H173.824C172.691 45.4949 172.124 44.929 172.124 44.0797V28.3038C172.124 23.9571 171.078 21.0885 168.987 19.698C167.288 18.1337 165.285 17.3512 162.976 17.3506C159.253 17.3506 156.465 19.263 154.615 23.0878C154.178 24.0863 153.961 25.4775 153.961 27.2614V44.0797C153.679 45.2113 153.112 45.7771 152.261 45.7771H151.738C150.604 45.4949 150.038 44.929 150.038 44.0797V28.3038C150.038 23.9571 148.992 21.0885 146.902 19.698C145.203 18.1337 143.2 17.3512 140.891 17.3506C137.168 17.3506 134.38 19.263 132.529 23.0878C132.094 24.0863 131.876 25.4775 131.875 27.2614V44.0797C131.592 45.2113 131.026 45.7771 130.174 45.7771H129.651C128.517 45.4949 127.95 44.929 127.95 44.0797V15.2608C128.234 14.1292 128.801 13.5634 129.651 13.5634H130.174C131.308 13.8456 131.875 14.4114 131.875 15.2608V16.9582C134.667 14.6098 137.544 13.4355 140.509 13.4355Z" fill="white"/>
<path d="M196.345 13.3374H197.259C201.636 13.3374 205.556 15.1629 209.018 18.814V18.9448H209.149V15.2934C209.432 14.1618 209.999 13.596 210.85 13.596H211.374C212.507 13.8789 213.074 14.4447 213.074 15.2934V44.1123C212.791 45.2439 212.225 45.8097 211.374 45.8097H210.85C209.716 45.5268 209.149 44.961 209.149 44.1123V40.2003H209.018C208.474 41.091 207.429 42.0472 205.883 43.0689C203.074 44.8941 200.199 45.8071 197.259 45.8077H196.345C190.856 45.8077 186.283 43.1119 182.625 37.7201C181.231 34.9823 180.534 32.4179 180.534 30.0269V29.1143C180.534 23.6366 183.236 19.0726 188.638 15.4222C191.381 14.033 193.95 13.3381 196.345 13.3374ZM184.454 29.6375C184.454 34.4195 186.893 38.1578 191.772 40.8523C193.732 41.5486 195.43 41.8964 196.867 41.8957C201.657 41.8957 205.403 39.4614 208.104 34.5929C208.8 32.6372 209.149 30.9418 209.149 29.5067C209.149 24.726 206.71 20.988 201.832 18.2928C199.872 17.5966 198.173 17.2488 196.737 17.2494C191.945 17.2494 188.2 19.6837 185.5 24.5522C184.803 26.5086 184.454 28.2037 184.454 29.6375Z" fill="white"/>
<path d="M225.949 8.74072H226.472C227.606 9.02296 228.173 9.58876 228.173 10.4381V14.6107H236.536C237.67 14.893 238.237 15.4588 238.237 16.3081V16.8294C237.954 17.961 237.387 18.5268 236.536 18.5268H228.173V35.7404C228.173 38.6739 229.436 40.6732 231.963 41.7383C232.83 41.9999 233.57 42.1303 234.184 42.1297C235.512 42.1297 236.949 41.7386 238.496 40.9564H239.149C240.283 41.2393 240.85 41.8052 240.85 42.6539V42.9145C240.85 44.6744 238.759 45.7175 234.578 46.0437H233.533C231.05 46.0437 228.742 44.9137 226.607 42.6539C225.04 40.6968 224.256 38.7405 224.255 36.7848V18.5208H220.201C219.067 18.2392 218.5 17.6734 218.5 16.8234V16.3022C218.783 15.1706 219.349 14.6048 220.201 14.6048H224.25V10.4361C224.534 9.30586 225.1 8.74072 225.949 8.74072Z" fill="white"/>
<path d="M245.33 2.4165H245.853C246.811 2.4165 247.378 3.06851 247.554 4.37251V17.0212C250.667 14.2394 253.89 12.8485 257.222 12.8485H258.268C262.492 12.8485 266.194 14.8482 269.373 18.8474C271.028 21.3688 271.855 23.9769 271.855 26.6714V43.7543C271.681 45.0583 271.114 45.7103 270.154 45.7103H269.631C268.497 45.428 267.93 44.8622 267.93 44.0129V28.1062C267.93 22.781 265.709 19.2165 261.267 17.4126C259.765 16.9786 258.588 16.7612 257.739 16.7606C253.558 16.7606 250.379 18.9339 248.201 23.2806C247.765 24.6718 247.547 26.2361 247.548 27.9734V44.0149C247.264 45.1465 246.697 45.7123 245.847 45.7123H245.324C244.366 45.7123 243.799 45.0603 243.623 43.7563V4.1169C243.911 2.9833 244.48 2.4165 245.33 2.4165Z" fill="white"/>
<path d="M292.247 13.2725H292.902C298.912 13.2725 303.614 16.0978 307.008 21.7485C307.88 23.9225 308.315 25.8785 308.315 27.6165V28.7897C308.141 30.5291 307.574 31.3984 306.614 31.3977H280.488C281.316 34.8758 282.71 37.3533 284.67 38.8304C287.13 40.8273 289.831 41.8258 292.774 41.8258C296.497 41.8258 299.808 40.174 302.704 36.8704C303.27 36.6966 303.662 36.6098 303.88 36.6098C305.099 36.9586 305.709 37.5673 305.709 38.436V38.8264C305.162 40.6329 303.072 42.4602 299.437 44.308C297.369 45.2645 295.279 45.7425 293.166 45.7418H292.25C286.763 45.7418 282.189 43.0459 278.531 37.6542C277.137 34.9157 276.44 32.3529 276.441 29.9659V29.0553C276.441 23.579 279.142 19.015 284.545 15.3633C287.285 13.9701 289.852 13.2731 292.247 13.2725ZM280.619 27.4857H304.399C304.399 24.7259 303.005 22.1179 300.218 19.6617C297.801 18.0102 295.275 17.1845 292.64 17.1845C289.852 17.1845 287.196 18.183 284.67 20.1799C282.231 22.6801 281.011 24.5928 281.011 25.9181C280.837 25.9201 280.706 26.4427 280.619 27.4857Z" fill="white"/>
<path d="M327.275 13.3374H328.19C332.567 13.3374 336.487 15.1629 339.949 18.814V18.9448H340.08V15.2934C340.363 14.1618 340.93 13.596 341.781 13.596H342.303C343.437 13.8789 344.004 14.4447 344.004 15.2934V44.1123C343.721 45.2439 343.154 45.8097 342.303 45.8097H341.781C340.647 45.5268 340.08 44.961 340.08 44.1123V40.2003H339.949C339.405 41.091 338.36 42.0472 336.814 43.0689C334.004 44.8941 331.13 45.8071 328.19 45.8077H327.275C321.787 45.8077 317.214 43.1119 313.556 37.7201C312.162 34.9823 311.465 32.4179 311.465 30.0269V29.1143C311.465 23.6366 314.166 19.0726 319.569 15.4222C322.311 14.033 324.88 13.3381 327.275 13.3374ZM315.385 29.6375C315.385 34.4195 317.824 38.1578 322.702 40.8523C324.662 41.5486 326.36 41.8964 327.797 41.8957C332.588 41.8957 336.334 39.4614 339.035 34.5929C339.731 32.6372 340.079 30.9418 340.08 29.5067C340.08 24.726 337.641 20.988 332.763 18.2928C330.803 17.5966 329.104 17.2488 327.667 17.2494C322.877 17.2494 319.131 19.6837 316.43 24.5522C315.733 26.5086 315.385 28.2037 315.385 29.6375Z" fill="white"/>
<path d="M86.7896 52.5039H87.0237C89.1767 52.5039 90.8614 53.516 92.078 55.5403C92.3901 56.3191 92.5462 57.018 92.5462 57.6371V58.0574C92.4842 58.6805 92.2814 58.992 91.9379 58.992H82.5766C82.8741 60.2374 83.3743 61.1247 84.0773 61.6539C84.9584 62.3708 85.9255 62.7289 86.9786 62.7283C88.3126 62.7283 89.4985 62.1368 90.5363 60.954C90.6721 60.905 90.8137 60.8735 90.9575 60.8601C91.3937 60.9853 91.6121 61.2033 91.6128 61.5141V61.6539C91.4173 62.3009 90.6683 62.9549 89.3657 63.6159C88.6636 63.9497 87.8964 64.1253 87.1187 64.1301H86.7896C84.824 64.1301 83.1859 63.1649 81.8753 61.2345C81.3758 60.254 81.126 59.3355 81.126 58.4788V58.1523C81.126 56.1899 82.0931 54.5548 84.0273 53.2468C85.0104 52.7515 85.9312 52.5039 86.7896 52.5039ZM82.6237 57.5961H91.1415C91.1415 56.6076 90.6413 55.6734 89.6409 54.7934C88.7738 54.2023 87.8687 53.9064 86.9256 53.9058C85.9252 53.9058 84.9737 54.2639 84.0713 54.9801C83.1969 55.8761 82.7601 56.5614 82.7607 57.036C82.7007 57.0353 82.655 57.2217 82.6237 57.5951V57.5961Z" fill="white"/>
<path d="M104.09 52.5854H104.419C105.939 52.5854 107.219 53.3326 108.256 54.827C108.678 55.534 108.904 56.3399 108.912 57.1625V63.5627C108.811 63.9667 108.608 64.1691 108.303 64.1697H108.116C107.71 64.0692 107.507 63.8669 107.508 63.5627V57.9113C107.508 56.355 107.134 55.3273 106.385 54.828C105.804 54.2786 105.032 53.977 104.232 53.9873C102.898 53.9873 101.899 54.6726 101.236 56.0432C101.08 56.4006 101.002 56.8999 101.002 57.5409V63.5627C100.9 63.9667 100.697 64.1691 100.394 64.1697H100.206C99.8002 64.0692 99.5974 63.8669 99.5974 63.5627V53.2395C99.6981 52.8341 99.9009 52.6314 100.206 52.6314H100.394C100.794 52.7312 101.002 52.9309 101.002 53.2395V53.8465C102.001 53.0058 103.03 52.5854 104.09 52.5854Z" fill="white"/>
<path d="M121.931 52.5039H122.165C124.318 52.5039 126.002 53.516 127.219 55.5403C127.531 56.3191 127.687 57.018 127.687 57.6371V58.0574C127.625 58.6805 127.422 58.992 127.079 58.992H117.718C118.015 60.2374 118.515 61.1247 119.218 61.6539C120.101 62.3708 121.068 62.7289 122.12 62.7283C123.454 62.7283 124.64 62.1368 125.677 60.954C125.813 60.905 125.955 60.8735 126.099 60.8601C126.535 60.9853 126.753 61.2033 126.754 61.5141V61.6539C126.558 62.3009 125.809 62.9549 124.507 63.6159C123.805 63.9497 123.038 64.1253 122.26 64.1301H121.933C119.966 64.1301 118.328 63.1649 117.018 61.2345C116.519 60.254 116.269 59.3355 116.269 58.4788V58.1523C116.269 56.1899 117.236 54.5548 119.17 53.2468C120.152 52.7515 121.072 52.5039 121.931 52.5039ZM117.765 57.5961H126.284C126.284 56.6076 125.783 55.6734 124.783 54.7934C123.916 54.2023 123.011 53.9064 122.068 53.9058C121.067 53.9058 120.115 54.2639 119.212 54.9801C118.339 55.8761 117.902 56.5614 117.902 57.036C117.842 57.0353 117.796 57.2217 117.765 57.5951V57.5961Z" fill="white"/>
<path d="M135.347 52.5195H135.534C135.94 52.62 136.143 52.8224 136.143 53.1266V54.5245C137.376 53.1878 138.827 52.5195 140.496 52.5195H140.636C141.042 52.62 141.244 52.8224 141.244 53.1266V53.3133C141.244 53.7493 140.778 53.9673 139.844 53.9673C139.196 54.1074 138.579 54.3602 138.019 54.7142C137.347 55.2833 136.895 55.8128 136.661 56.3027C136.318 56.9797 136.146 57.9449 136.147 59.1983V63.4488C136.047 63.8532 135.847 64.0559 135.538 64.0559H135.351C134.946 63.9554 134.743 63.753 134.742 63.4488V53.1186C134.841 52.7192 135.043 52.5195 135.347 52.5195Z" fill="white"/>
<path d="M151.443 52.4688H151.769C153.337 52.4688 154.741 53.1228 155.981 54.4308V54.4767H156.028V53.1687C156.13 52.7646 156.332 52.5623 156.636 52.5616H156.824C157.23 52.6635 157.433 52.8658 157.432 53.1687V63.9592C157.432 65.2599 156.605 66.3499 154.952 67.2292C154.126 67.5931 153.234 67.7841 152.331 67.7903H152.002C149.663 67.6658 148.493 67.2764 148.493 66.6221V66.4354C148.493 66.0932 148.726 65.8909 149.193 65.8283L150.594 66.2487C151.152 66.3309 151.715 66.3776 152.279 66.3885C153.566 66.3885 154.642 65.9525 155.508 65.0805C155.851 64.707 156.023 64.2078 156.023 63.5828V62.085H155.976C155.781 62.4046 155.407 62.747 154.853 63.1125C153.852 63.7721 152.824 64.102 151.769 64.102H151.441C149.475 64.102 147.837 63.1368 146.527 61.2064C146.028 60.2259 145.778 59.3073 145.778 58.4506V58.1211C145.778 56.1588 146.745 54.5236 148.679 53.2156C149.663 52.7177 150.585 52.4688 151.443 52.4688ZM147.184 58.3108C147.184 60.0229 148.058 61.3618 149.805 62.3277C150.508 62.5773 151.116 62.7018 151.63 62.7011C153.347 62.7011 154.689 61.8294 155.656 60.0861C155.905 59.3852 156.03 58.7778 156.03 58.2639C156.03 56.5518 155.156 55.2126 153.409 54.246C152.707 53.9971 152.098 53.8726 151.584 53.8726C149.867 53.8726 148.526 54.7446 147.558 56.4886C147.308 57.1875 147.184 57.7949 147.184 58.3108Z" fill="white"/>
<path d="M164.93 52.7256H165.117C165.468 52.7256 165.796 53.1915 166.1 54.1234C166.506 54.9262 167.692 57.5422 169.657 61.9714H169.751C172.31 56.2568 173.683 53.2518 173.869 52.9562C173.987 52.8511 174.134 52.7858 174.291 52.7695H174.48C174.886 52.87 175.089 53.0724 175.089 53.3766V53.5633C174.995 53.8522 173.606 56.9351 170.923 62.8122C170.111 64.7658 169.487 66.0895 169.051 66.7831C168.363 67.5918 167.598 67.9962 166.755 67.9962H166.428C165.398 67.9037 164.836 67.6235 164.743 67.1555V66.9219C164.845 66.5178 165.047 66.3155 165.352 66.3148H165.539C166.038 66.5018 166.381 66.5954 166.568 66.5954C167.449 66.5954 168.104 65.957 168.534 64.6803C168.784 64.2197 168.909 63.8925 168.908 63.6988C165.944 57.2134 164.415 53.8186 164.321 53.5144V53.3277C164.424 52.9269 164.627 52.7263 164.93 52.7256Z" fill="white"/>
<path fill-rule="evenodd" clip-rule="evenodd" d="M19.0337 47.4893H0V56.9877C0.000265287 59.5065 1.00296 61.9221 2.78757 63.7032C4.57217 65.4842 6.99253 66.4849 9.51634 66.4852H19.0337V47.4893Z" fill="white"/>
<path fill-rule="evenodd" clip-rule="evenodd" d="M23.7928 47.4893V56.9877C23.7928 59.5066 24.7955 61.9223 26.5801 63.7035C28.3648 65.4846 30.7853 66.4852 33.3092 66.4852H42.8255V47.4893H23.7928Z" fill="white"/>
<path fill-rule="evenodd" clip-rule="evenodd" d="M47.5837 47.4893V56.9877C47.584 59.5067 48.5868 61.9224 50.3717 63.7035C52.1565 65.4846 54.5771 66.4852 57.1011 66.4852H66.6174V47.4893H47.5837Z" fill="white"/>
<path fill-rule="evenodd" clip-rule="evenodd" d="M19.0337 42.7406V23.7446H0V33.2421C0.000258181 35.7575 1.00018 38.1702 2.78043 39.9508C4.56068 41.7315 6.9759 42.7348 9.49633 42.7406H19.0337Z" fill="white"/>
<path fill-rule="evenodd" clip-rule="evenodd" d="M9.51634 18.9959H19.0337V0H0V9.49747C0.000265227 12.0164 1.00293 14.432 2.7875 16.2133C4.57208 17.9945 6.99244 18.9954 9.51634 18.9959Z" fill="white"/>
<path fill-rule="evenodd" clip-rule="evenodd" d="M47.5837 33.2421C47.584 35.7575 48.5839 38.1702 50.3642 39.9508C52.1444 41.7315 54.5596 42.7348 57.0801 42.7406H66.6174V23.7446H47.5837V33.2421Z" fill="white"/>
<path fill-rule="evenodd" clip-rule="evenodd" d="M42.8255 42.7406V23.7446H23.7928V33.2421C23.7928 35.7575 24.7925 38.1701 26.5726 39.9508C28.3527 41.7315 30.7678 42.7348 33.2882 42.7406H42.8255Z" fill="white"/>
<path fill-rule="evenodd" clip-rule="evenodd" d="M23.7928 9.49747C23.7928 12.0164 24.7954 14.4323 26.5801 16.2136C28.3647 17.9948 30.7852 18.9957 33.3092 18.9959H42.8255V0H23.7928V9.49747Z" fill="white"/>
<path fill-rule="evenodd" clip-rule="evenodd" d="M47.5837 9.49747C47.584 12.0165 48.5868 14.4324 50.3716 16.2136C52.1564 17.9949 54.577 18.9957 57.1011 18.9959H66.6174V0H47.5837V9.49747Z" fill="white"/>
</g>
<defs>
<clipPath id="clip0_806_40">
<rect width="344" height="68" fill="white"/>
</clipPath>
</defs>
</svg>
