<svg width="77" height="77" viewBox="0 0 77 77" fill="none" xmlns="http://www.w3.org/2000/svg">
<path fill-rule="evenodd" clip-rule="evenodd" d="M21.8002 54.4731H0V65.3684C0.000303846 68.2576 1.14874 71.0284 3.19273 73.0714C5.23673 75.1144 8.00889 76.2623 10.8995 76.2626H21.8002V54.4731Z" fill="#7209B7"/>
<path fill-rule="evenodd" clip-rule="evenodd" d="M27.2511 54.4731V65.3684C27.2511 68.2577 28.3994 71.0287 30.4435 73.0717C32.4876 75.1148 35.2599 76.2626 38.1506 76.2626H49.0502V54.4731H27.2511Z" fill="#7209B7"/>
<path fill-rule="evenodd" clip-rule="evenodd" d="M54.5 54.4731V65.3684C54.5003 68.2578 55.6489 71.0288 57.6931 73.0718C59.7374 75.1148 62.5098 76.2626 65.4007 76.2626H76.3002V54.4731H54.5Z" fill="#7209B7"/>
<path fill-rule="evenodd" clip-rule="evenodd" d="M21.8002 49.026V27.2365H0V38.1307C0.000295707 41.0161 1.14555 43.7835 3.18456 45.826C5.22356 47.8685 7.98984 49.0193 10.8766 49.026H21.8002Z" fill="#B5179E"/>
<path fill-rule="evenodd" clip-rule="evenodd" d="M10.8995 21.7895H21.8002V0H0V10.8942C0.000303778 13.7835 1.1487 16.5544 3.19266 18.5976C5.23662 20.6407 8.00878 21.7889 10.8995 21.7895V21.7895Z" fill="#F72585"/>
<path fill-rule="evenodd" clip-rule="evenodd" d="M54.5 38.1307C54.5003 41.0161 55.6456 43.7835 57.6846 45.826C59.7236 47.8685 62.4898 49.0193 65.3766 49.026H76.3002V27.2365H54.5V38.1307Z" fill="#B5179E"/>
<path fill-rule="evenodd" clip-rule="evenodd" d="M49.0502 49.026V27.2365H27.2511V38.1307C27.2511 41.016 28.3961 43.7834 30.4349 45.826C32.4737 47.8685 35.2399 49.0193 38.1266 49.026H49.0502Z" fill="#B5179E"/>
<path fill-rule="evenodd" clip-rule="evenodd" d="M27.2511 10.8942C27.2511 13.7836 28.3994 16.5547 30.4434 18.5979C32.4875 20.6411 35.2598 21.7892 38.1506 21.7895H49.0502V0H27.2511V10.8942Z" fill="#F72585"/>
<path fill-rule="evenodd" clip-rule="evenodd" d="M54.5 10.8942C54.5003 13.7837 55.6489 16.5548 57.6931 18.598C59.7373 20.6412 62.5097 21.7892 65.4007 21.7895H76.3002V0H54.5V10.8942Z" fill="#F72585"/>
</svg>
