<svg width="302" height="76" viewBox="0 0 302 76" fill="none" xmlns="http://www.w3.org/2000/svg">
<path d="M2.83689 1.2206H3.43503C4.73368 1.54434 5.383 2.19335 5.383 3.16763V48.7864C5.05834 50.0844 4.40902 50.7334 3.43503 50.7334H2.83689C1.53824 50.4089 0.888916 49.7599 0.888916 48.7864V3.16534C1.21511 1.86885 1.86443 1.2206 2.83689 1.2206Z" fill="#3A0CA3"/>
<path d="M16.317 13.4113H16.9162C18.2149 13.735 18.8642 14.384 18.8642 15.3583V33.4541C18.8642 38.4408 20.0613 41.7317 22.4554 43.3267C24.4011 45.121 26.6959 46.0185 29.3398 46.0193C33.6047 46.0193 36.7971 43.8253 38.9169 39.4372C39.415 38.2919 39.6644 36.6965 39.6652 34.651V15.356C39.9891 14.058 40.6384 13.409 41.6132 13.409H42.2113C43.51 13.7327 44.1593 14.3817 44.1593 15.356V48.4118C43.8346 49.7099 43.1853 50.3589 42.2113 50.3589H41.6086C40.3099 50.0359 39.6606 49.3869 39.6606 48.4118V46.4648C36.4682 49.1571 33.1758 50.5032 29.7832 50.5032H28.7359C24.0218 50.5032 19.9814 48.2095 16.6149 43.6222C15.1184 41.0048 14.3701 38.4122 14.3701 35.8444V15.356C14.6948 14.0595 15.3437 13.4113 16.317 13.4113Z" fill="#3A0CA3"/>
<path d="M68.932 13.4113H69.9793C73.4933 13.4113 76.7858 14.8074 79.8568 17.5996C81.254 19.0702 81.9522 19.9678 81.9514 20.2923C85.4654 15.7057 89.5562 13.412 94.2237 13.4113H95.2711C100.134 13.4113 104.225 15.8046 107.542 20.5912C108.939 23.0345 109.637 25.5275 109.637 28.07V48.5619C109.312 49.8599 108.663 50.5089 107.689 50.5089H107.09C105.791 50.1852 105.142 49.5361 105.142 48.5619V30.466C105.142 25.4801 103.944 22.1897 101.549 20.5946C99.6036 18.8003 97.3088 17.9028 94.6649 17.902C90.4 17.902 87.2075 20.0956 85.0877 24.4829C84.5881 25.6282 84.3387 27.224 84.3394 29.2703V48.5619C84.0155 49.8599 83.3662 50.5089 82.3914 50.5089H81.7933C80.4946 50.1852 79.8453 49.5361 79.8453 48.5619V30.466C79.8453 25.4801 78.6482 22.1897 76.2541 20.5946C74.3084 18.8003 72.0136 17.9028 69.3697 17.902C65.1048 17.902 61.912 20.0956 59.7914 24.4829C59.2933 25.6282 59.0439 27.224 59.0431 29.2703V48.5619C58.7192 49.8599 58.0699 50.5089 57.0951 50.5089H56.4958C55.1972 50.1852 54.5479 49.5361 54.5479 48.5619V15.5049C54.8725 14.2069 55.5218 13.5579 56.4958 13.5579H57.0951C58.3938 13.8816 59.0431 14.5306 59.0431 15.5049V17.4519C62.2401 14.7581 65.5364 13.4113 68.932 13.4113Z" fill="#3A0CA3"/>
<path d="M132.883 13.299H133.93C138.944 13.299 143.434 15.393 147.399 19.581V19.7311H147.549V15.5427C147.872 14.2447 148.522 13.5956 149.497 13.5956H150.096C151.395 13.9201 152.044 14.5692 152.044 15.5427V48.5997C151.72 49.8977 151.071 50.5467 150.096 50.5467H149.497C148.198 50.2222 147.549 49.5732 147.549 48.5997V44.1123H147.399C146.776 45.134 145.579 46.2308 143.808 47.4028C140.59 49.4964 137.298 50.5436 133.93 50.5444H132.883C126.597 50.5444 121.359 47.4521 117.17 41.2674C115.572 38.127 114.774 35.1854 114.775 32.4428V31.396C114.775 25.1129 117.869 19.8777 124.056 15.6904C127.198 14.0969 130.14 13.2998 132.883 13.299ZM119.264 31.9961C119.264 37.4814 122.058 41.7694 127.645 44.8602C129.89 45.6589 131.836 46.0578 133.481 46.0571C138.968 46.0571 143.258 43.2648 146.352 37.6803C147.149 35.437 147.548 33.4923 147.549 31.8461C147.549 26.3624 144.755 22.0747 139.168 18.9832C136.923 18.1845 134.978 17.7856 133.332 17.7863C127.844 17.7863 123.554 20.5786 120.462 26.1631C119.664 28.4071 119.264 30.3515 119.264 31.9961Z" fill="#3A0CA3"/>
<path d="M166.79 8.02602H167.39C168.688 8.34976 169.338 8.99876 169.338 9.97304V14.7593H178.916C180.215 15.083 180.864 15.732 180.864 16.7063V17.3041C180.54 18.6022 179.891 19.2512 178.916 19.2512H169.338V38.9963C169.338 42.3612 170.785 44.6545 173.678 45.8761C174.671 46.1762 175.519 46.3258 176.222 46.3251C177.743 46.3251 179.389 45.8765 181.161 44.9793H181.909C183.208 45.3039 183.857 45.9529 183.857 46.9264V47.2253C183.857 49.2441 181.463 50.4406 176.674 50.8147H175.476C172.633 50.8147 169.989 49.5186 167.544 46.9264C165.749 44.6816 164.851 42.4375 164.851 40.1943V19.2443H160.206C158.908 18.9213 158.258 18.2723 158.258 17.2973V16.6994C158.582 15.4014 159.232 14.7524 160.206 14.7524H164.845V9.97075C165.169 8.67426 165.818 8.02602 166.79 8.02602Z" fill="#3A0CA3"/>
<path d="M188.989 0.771645H189.588C190.685 0.771645 191.334 1.51953 191.536 3.0153V17.5241C195.102 14.3332 198.793 12.7378 202.61 12.7378H203.807C208.645 12.7378 212.885 15.0315 216.526 19.6188C218.421 22.5111 219.369 25.5026 219.369 28.5934V48.1885C219.17 49.6843 218.52 50.4322 217.421 50.4322H216.822C215.523 50.1084 214.874 49.4594 214.874 48.4851V30.2392C214.874 24.1309 212.33 20.0422 207.242 17.973C205.521 17.4752 204.174 17.2259 203.201 17.2251C198.413 17.2251 194.771 19.7181 192.277 24.704C191.778 26.2998 191.528 28.0941 191.529 30.0869V48.4874C191.204 49.7854 190.554 50.4344 189.581 50.4344H188.982C187.884 50.4344 187.235 49.6866 187.034 48.1908V2.7221C187.364 1.4218 188.015 0.771645 188.989 0.771645Z" fill="#3A0CA3"/>
<path d="M242.725 13.2246H243.475C250.358 13.2246 255.744 16.4654 259.631 22.9471C260.63 25.4408 261.129 27.6844 261.128 29.678V31.0238C260.929 33.0189 260.279 34.0161 259.18 34.0153H229.257C230.205 38.0048 231.801 40.8467 234.046 42.541C236.864 44.8316 239.958 45.9769 243.328 45.9769C247.593 45.9769 251.384 44.0822 254.702 40.2928C255.35 40.0935 255.798 39.9938 256.048 39.9938C257.445 40.3939 258.143 41.0922 258.143 42.0886V42.5364C257.517 44.6087 255.123 46.7046 250.959 48.8241C248.591 49.9214 246.197 50.4696 243.777 50.4688H242.729C236.443 50.4688 231.205 47.3765 227.015 41.1918C225.419 38.0506 224.621 35.111 224.622 32.373V31.3284C224.622 25.0468 227.715 19.8116 233.903 15.6228C237.041 14.0248 239.982 13.2253 242.725 13.2246ZM229.407 29.528H256.643C256.643 26.3624 255.047 23.3708 251.854 20.5534C249.086 18.659 246.193 17.7119 243.174 17.7119C239.982 17.7119 236.939 18.8572 234.046 21.1478C231.253 24.0156 229.856 26.2097 229.856 27.7299C229.656 27.7322 229.506 28.3315 229.407 29.528Z" fill="#3A0CA3"/>
<path d="M282.844 13.299H283.892C288.905 13.299 293.395 15.393 297.36 19.581V19.7311H297.51V15.5427C297.834 14.2447 298.484 13.5956 299.458 13.5956H300.057C301.355 13.9201 302.004 14.5692 302.004 15.5427V48.5997C301.681 49.8977 301.031 50.5467 300.057 50.5467H299.458C298.16 50.2222 297.51 49.5732 297.51 48.5997V44.1123H297.36C296.737 45.134 295.54 46.2308 293.769 47.4028C290.552 49.4964 287.259 50.5436 283.892 50.5444H282.844C276.559 50.5444 271.321 47.4521 267.131 41.2674C265.535 38.127 264.736 35.1854 264.736 32.4428V31.396C264.736 25.1129 267.83 19.8777 274.018 15.6904C277.158 14.0969 280.1 13.2998 282.844 13.299ZM269.226 31.9961C269.226 37.4814 272.019 41.7694 277.607 44.8602C279.851 45.6589 281.796 46.0578 283.443 46.0571C288.93 46.0571 293.22 43.2648 296.313 37.6803C297.111 35.437 297.51 33.4923 297.51 31.8461C297.51 26.3624 294.717 22.0747 289.13 18.9832C286.884 18.1845 284.939 17.7856 283.294 17.7863C277.806 17.7863 273.516 20.5786 270.423 26.1631C269.625 28.4071 269.226 30.3515 269.226 31.9961Z" fill="#3A0CA3"/>
<path d="M7.4045 58.2248H7.67263C10.1385 58.2248 12.0682 59.3858 13.4616 61.7077C13.8191 62.6011 13.9978 63.4028 13.9978 64.1129V64.595C13.9268 65.3097 13.6946 65.667 13.3011 65.667H2.57924C2.91994 67.0956 3.49288 68.1134 4.29804 68.7204C5.30717 69.5428 6.41485 69.9535 7.62107 69.9528C9.1489 69.9528 10.5071 69.2744 11.6958 67.9176C11.8514 67.8614 12.0135 67.8253 12.1782 67.8099C12.6778 67.9535 12.928 68.2035 12.9287 68.5601V68.7204C12.7049 69.4626 11.847 70.2128 10.3551 70.971C9.5509 71.3538 8.67226 71.5552 7.78149 71.5608H7.4045C5.15324 71.5608 3.27707 70.4537 1.77598 68.2394C1.20381 67.1147 0.917725 66.061 0.917725 65.0784V64.7038C0.917725 62.4529 2.0254 60.5773 4.24075 59.0769C5.36676 58.5089 6.42134 58.2248 7.4045 58.2248ZM2.63309 64.0659H12.389C12.389 62.932 11.8161 61.8604 10.6702 60.851C9.67714 60.173 8.64051 59.8336 7.56033 59.8328C6.41446 59.8328 5.32474 60.2436 4.29117 61.0652C3.28968 62.0929 2.78931 62.879 2.79007 63.4234C2.72132 63.4226 2.66899 63.6364 2.63309 64.0648V64.0659Z" fill="#3A0CA3"/>
<path d="M27.2198 58.3187H27.5957C29.3374 58.3187 30.8026 59.1758 31.9912 60.89C32.4739 61.7009 32.7328 62.6253 32.7418 63.5688V70.9103C32.6264 71.3737 32.3942 71.6058 32.0451 71.6066H31.8308C31.3656 71.4913 31.1334 71.2592 31.1341 70.9103V64.4278C31.1341 62.6427 30.7052 61.4638 29.8473 60.8911C29.1824 60.2609 28.2977 59.9149 27.3814 59.9268C25.8536 59.9268 24.71 60.7128 23.9507 62.2849C23.7719 62.695 23.6825 63.2676 23.6825 64.0029V70.9103C23.5657 71.3737 23.3334 71.6058 22.9858 71.6066H22.7704C22.306 71.4913 22.0737 71.2592 22.0737 70.9103V59.0689C22.1891 58.6039 22.4213 58.3714 22.7704 58.3714H22.9858C23.4442 58.486 23.6825 58.715 23.6825 59.0689V59.7653C24.8261 58.8009 26.0052 58.3187 27.2198 58.3187Z" fill="#3A0CA3"/>
<path d="M47.6532 58.2248H47.9213C50.3872 58.2248 52.3169 59.3858 53.7103 61.7077C54.0678 62.6011 54.2465 63.4028 54.2465 64.1129V64.595C54.1755 65.3097 53.9433 65.667 53.5498 65.667H42.8279C43.1679 67.0956 43.7408 68.1134 44.5467 68.7204C45.5574 69.5428 46.6651 69.9535 47.8698 69.9528C49.3976 69.9528 50.7558 69.2744 51.9445 67.9176C52.1001 67.8614 52.2622 67.8253 52.4269 67.8099C52.9265 67.9535 53.1767 68.2035 53.1774 68.5601V68.7204C52.9536 69.4626 52.0957 70.2128 50.6038 70.971C49.7996 71.3538 48.921 71.5552 48.0302 71.5608H47.6555C45.4035 71.5608 43.5273 70.4537 42.027 68.2394C41.4548 67.1147 41.1687 66.061 41.1687 65.0784V64.7038C41.1687 62.4529 42.2764 60.5773 44.4917 59.0769C45.6162 58.5089 46.67 58.2248 47.6532 58.2248ZM42.8818 64.0659H52.6389C52.6389 62.932 52.0659 61.8604 50.9201 60.851C49.927 60.173 48.8903 59.8336 47.8102 59.8328C46.6643 59.8328 45.5742 60.2436 44.5398 61.0652C43.5399 62.0929 43.0395 62.879 43.0388 63.4234C42.97 63.4226 42.9177 63.6364 42.8818 64.0648V64.0659Z" fill="#3A0CA3"/>
<path d="M63.0192 58.2432H63.2335C63.6988 58.3585 63.9314 58.5906 63.9314 58.9395V60.5429C65.3431 59.0098 67.005 58.2432 68.9171 58.2432H69.0775C69.5419 58.3585 69.7742 58.5906 69.7742 58.9395V59.1537C69.7742 59.6538 69.2394 59.9039 68.17 59.9039C67.4284 60.0646 66.7209 60.3546 66.0799 60.7605C65.3106 61.4134 64.7923 62.0208 64.5249 62.5827C64.1315 63.3593 63.9352 64.4664 63.9359 65.9041V70.7797C63.8214 71.2435 63.5922 71.476 63.2381 71.476H63.0238C62.5601 71.3607 62.3279 71.1286 62.3271 70.7797V58.9303C62.4402 58.4722 62.6709 58.2432 63.0192 58.2432Z" fill="#3A0CA3"/>
<path d="M81.4551 58.1848H81.8287C83.6246 58.1848 85.2326 58.9349 86.6527 60.4353V60.488H86.7066V58.9876C86.8227 58.5241 87.055 58.292 87.4033 58.2913H87.6176C88.0828 58.4081 88.315 58.6402 88.3143 58.9876V71.365C88.3143 72.8569 87.3674 74.1072 85.4737 75.1158C84.5275 75.5333 83.5057 75.7524 82.4715 75.7595H82.0956C79.4158 75.6167 78.0759 75.17 78.0759 74.4195V74.2053C78.0759 73.8129 78.3433 73.5807 78.8781 73.509L80.4823 73.9911C81.1214 74.0855 81.7659 74.139 82.4119 74.1515C83.8862 74.1515 85.1192 73.6514 86.1108 72.6511C86.5034 72.2228 86.7001 71.6501 86.7009 70.9332V69.2152H86.647C86.424 69.5817 85.995 69.9746 85.3602 70.3937C84.2136 71.1504 83.0364 71.5287 81.8287 71.5287H81.4528C79.2008 71.5287 77.3246 70.4216 75.8243 68.2073C75.2529 67.0826 74.9668 66.029 74.9661 65.0463V64.6683C74.9661 62.4174 76.0737 60.5418 78.2891 59.0414C79.4166 58.4703 80.4719 58.1848 81.4551 58.1848ZM76.5772 64.8859C76.5772 66.8498 77.5779 68.3856 79.5793 69.4935C80.3837 69.7798 81.0804 69.9226 81.6694 69.9219C83.6357 69.9219 85.1727 68.922 86.2803 66.9223C86.566 66.1183 86.7089 65.4216 86.7089 64.8321C86.7089 62.8683 85.7082 61.3321 83.7067 60.2234C82.9023 59.9378 82.2056 59.7951 81.6167 59.7951C79.6504 59.7951 78.1134 60.7953 77.0057 62.7958C76.7192 63.5975 76.5764 64.2942 76.5772 64.8859Z" fill="#3A0CA3"/>
<path d="M96.9027 58.4791H97.117C97.5188 58.4791 97.8939 59.0136 98.2422 60.0825C98.7074 61.0034 100.066 64.0041 102.317 69.0846H102.423C105.355 62.5297 106.927 59.0827 107.141 58.7437C107.275 58.6231 107.444 58.5481 107.623 58.5295H107.84C108.305 58.6448 108.538 58.8769 108.538 59.2258V59.44C108.43 59.7714 106.84 63.3077 103.766 70.049C102.837 72.29 102.122 73.8083 101.623 74.6039C100.834 75.5316 99.9576 75.9954 98.9927 75.9954H98.618C97.4378 75.8893 96.7946 75.5678 96.6884 75.0311V74.7631C96.8045 74.2996 97.0367 74.0675 97.3851 74.0667H97.5994C98.1708 74.2813 98.5638 74.3886 98.7785 74.3886C99.7876 74.3886 100.538 73.6563 101.03 72.1919C101.317 71.6635 101.459 71.2882 101.459 71.066C98.0638 63.6269 96.3125 59.7328 96.2048 59.3839V59.1697C96.3225 58.7101 96.5551 58.4799 96.9027 58.4791Z" fill="#3A0CA3"/>
</svg>
