<svg width="394" height="78" viewBox="0 0 394 78" fill="none" xmlns="http://www.w3.org/2000/svg">
<g clip-path="url(#clip0_803_28)">
<path d="M94.8369 3.2206H95.435C96.7337 3.54434 97.383 4.19335 97.383 5.16763V50.7864C97.0583 52.0844 96.409 52.7334 95.435 52.7334H94.8369C93.5382 52.4089 92.8889 51.7599 92.8889 50.7864V5.16534C93.2151 3.86885 93.8644 3.2206 94.8369 3.2206Z" fill="#3A0CA3"/>
<path d="M108.317 15.4113H108.916C110.215 15.735 110.864 16.384 110.864 17.3583V35.4541C110.864 40.4408 112.061 43.7317 114.455 45.3267C116.401 47.121 118.696 48.0185 121.34 48.0193C125.605 48.0193 128.797 45.8253 130.917 41.4372C131.415 40.2919 131.664 38.6965 131.665 36.651V17.356C131.989 16.058 132.638 15.409 133.613 15.409H134.211C135.51 15.7327 136.159 16.3817 136.159 17.356V50.4118C135.835 51.7099 135.185 52.3589 134.211 52.3589H133.609C132.31 52.0359 131.661 51.3869 131.661 50.4118V48.4648C128.468 51.1571 125.176 52.5032 121.783 52.5032H120.736C116.022 52.5032 111.981 50.2095 108.615 45.6222C107.118 43.0048 106.37 40.4122 106.37 37.8444V17.356C106.695 16.0595 107.344 15.4113 108.317 15.4113Z" fill="#3A0CA3"/>
<path d="M160.932 15.4113H161.979C165.493 15.4113 168.786 16.8074 171.857 19.5996C173.254 21.0702 173.952 21.9678 173.951 22.2923C177.465 17.7057 181.556 15.412 186.224 15.4113H187.271C192.134 15.4113 196.225 17.8046 199.542 22.5912C200.939 25.0345 201.637 27.5275 201.637 30.07V50.5619C201.312 51.8599 200.663 52.5089 199.689 52.5089H199.09C197.791 52.1852 197.142 51.5361 197.142 50.5619V32.466C197.142 27.4801 195.944 24.1897 193.549 22.5946C191.604 20.8003 189.309 19.9028 186.665 19.902C182.4 19.902 179.208 22.0956 177.088 26.4829C176.588 27.6282 176.339 29.224 176.339 31.2703V50.5619C176.016 51.8599 175.366 52.5089 174.391 52.5089H173.793C172.495 52.1852 171.845 51.5361 171.845 50.5619V32.466C171.845 27.4801 170.648 24.1897 168.254 22.5946C166.308 20.8003 164.014 19.9028 161.37 19.902C157.105 19.902 153.912 22.0956 151.791 26.4829C151.293 27.6282 151.044 29.224 151.043 31.2703V50.5619C150.719 51.8599 150.07 52.5089 149.095 52.5089H148.496C147.197 52.1852 146.548 51.5361 146.548 50.5619V17.5049C146.873 16.2069 147.522 15.5579 148.496 15.5579H149.095C150.394 15.8816 151.043 16.5306 151.043 17.5049V19.4519C154.24 16.7581 157.536 15.4113 160.932 15.4113Z" fill="#3A0CA3"/>
<path d="M224.883 15.299H225.93C230.944 15.299 235.434 17.393 239.399 21.581V21.7311H239.549V17.5427C239.872 16.2447 240.522 15.5956 241.497 15.5956H242.096C243.395 15.9201 244.044 16.5692 244.044 17.5427V50.5997C243.72 51.8977 243.071 52.5467 242.096 52.5467H241.497C240.198 52.2222 239.549 51.5732 239.549 50.5997V46.1124H239.399C238.776 47.134 237.579 48.2308 235.808 49.4028C232.59 51.4964 229.298 52.5436 225.93 52.5444H224.883C218.597 52.5444 213.359 49.4521 209.17 43.2674C207.572 40.127 206.774 37.1854 206.775 34.4428V33.396C206.775 27.1129 209.869 21.8777 216.056 17.6904C219.198 16.0969 222.14 15.2998 224.883 15.299ZM211.264 33.9961C211.264 39.4814 214.058 43.7694 219.645 46.8602C221.89 47.6589 223.836 48.0578 225.481 48.0571C230.968 48.0571 235.258 45.2648 238.352 39.6803C239.149 37.437 239.548 35.4923 239.549 33.8461C239.549 28.3624 236.755 24.0747 231.168 20.9832C228.923 20.1845 226.978 19.7856 225.332 19.7863C219.844 19.7863 215.554 22.5786 212.462 28.1631C211.664 30.4071 211.264 32.3515 211.264 33.9961Z" fill="#3A0CA3"/>
<path d="M258.79 10.026H259.39C260.688 10.3498 261.338 10.9988 261.338 11.973V16.7593H270.916C272.215 17.083 272.864 17.732 272.864 18.7063V19.3041C272.54 20.6022 271.891 21.2512 270.916 21.2512H261.338V40.9963C261.338 44.3612 262.785 46.6545 265.678 47.8761C266.671 48.1762 267.519 48.3258 268.222 48.3251C269.743 48.3251 271.389 47.8765 273.161 46.9793H273.909C275.208 47.3039 275.857 47.9529 275.857 48.9264V49.2253C275.857 51.2441 273.463 52.4406 268.674 52.8147H267.476C264.633 52.8147 261.989 51.5186 259.544 48.9264C257.749 46.6816 256.851 44.4375 256.851 42.1943V21.2443H252.206C250.908 20.9213 250.258 20.2723 250.258 19.2973V18.6994C250.582 17.4014 251.232 16.7524 252.206 16.7524H256.845V11.9707C257.169 10.6743 257.818 10.026 258.79 10.026Z" fill="#3A0CA3"/>
<path d="M280.989 2.77164H281.588C282.685 2.77164 283.334 3.51953 283.536 5.0153V19.5241C287.102 16.3332 290.793 14.7378 294.61 14.7378H295.807C300.645 14.7378 304.885 17.0315 308.526 21.6188C310.421 24.5111 311.369 27.5026 311.369 30.5934V50.1885C311.17 51.6843 310.52 52.4322 309.421 52.4322H308.822C307.523 52.1084 306.874 51.4594 306.874 50.4851V32.2392C306.874 26.1309 304.33 22.0422 299.242 19.973C297.521 19.4752 296.174 19.2259 295.201 19.2251C290.413 19.2251 286.771 21.7181 284.277 26.704C283.778 28.2998 283.528 30.0941 283.529 32.0869V50.4874C283.204 51.7854 282.554 52.4344 281.581 52.4344H280.982C279.884 52.4344 279.235 51.6866 279.034 50.1908V4.7221C279.364 3.4218 280.015 2.77164 280.989 2.77164Z" fill="#3A0CA3"/>
<path d="M334.725 15.2246H335.475C342.358 15.2246 347.744 18.4654 351.631 24.9471C352.63 27.4408 353.129 29.6844 353.128 31.678V33.0238C352.929 35.0189 352.279 36.0161 351.18 36.0153H321.257C322.205 40.0048 323.801 42.8467 326.046 44.541C328.864 46.8316 331.958 47.9769 335.328 47.9769C339.593 47.9769 343.384 46.0822 346.702 42.2928C347.35 42.0935 347.798 41.9938 348.048 41.9938C349.445 42.3939 350.143 43.0922 350.143 44.0886V44.5364C349.517 46.6087 347.123 48.7046 342.959 50.8241C340.591 51.9214 338.197 52.4696 335.777 52.4688H334.729C328.443 52.4688 323.205 49.3765 319.015 43.1918C317.419 40.0506 316.621 37.111 316.622 34.373V33.3284C316.622 27.0468 319.715 21.8116 325.903 17.6228C329.041 16.0248 331.982 15.2253 334.725 15.2246ZM321.407 31.528H348.643C348.643 28.3624 347.047 25.3708 343.854 22.5534C341.086 20.659 338.193 19.7119 335.174 19.7119C331.982 19.7119 328.939 20.8572 326.046 23.1478C323.253 26.0156 321.856 28.2097 321.856 29.7299C321.656 29.7322 321.506 30.3315 321.407 31.528Z" fill="#3A0CA3"/>
<path d="M374.844 15.299H375.892C380.905 15.299 385.395 17.393 389.36 21.581V21.7311H389.51V17.5427C389.834 16.2447 390.484 15.5956 391.458 15.5956H392.057C393.355 15.9201 394.004 16.5692 394.004 17.5427V50.5997C393.681 51.8977 393.031 52.5467 392.057 52.5467H391.458C390.16 52.2222 389.51 51.5732 389.51 50.5997V46.1124H389.36C388.737 47.134 387.54 48.2308 385.769 49.4028C382.552 51.4964 379.259 52.5436 375.892 52.5444H374.844C368.559 52.5444 363.321 49.4521 359.131 43.2674C357.535 40.127 356.736 37.1854 356.736 34.4428V33.396C356.736 27.1129 359.83 21.8777 366.018 17.6904C369.158 16.0969 372.1 15.2998 374.844 15.299ZM361.226 33.9961C361.226 39.4814 364.019 43.7694 369.607 46.8602C371.851 47.6589 373.796 48.0578 375.443 48.0571C380.93 48.0571 385.22 45.2648 388.313 39.6803C389.111 37.437 389.51 35.4923 389.51 33.8461C389.51 28.3624 386.717 24.0747 381.13 20.9832C378.884 20.1845 376.939 19.7856 375.294 19.7863C369.806 19.7863 365.516 22.5786 362.423 28.1631C361.625 30.4071 361.226 32.3515 361.226 33.9961Z" fill="#3A0CA3"/>
<path d="M99.4045 60.2248H99.6726C102.139 60.2248 104.068 61.3858 105.462 63.7077C105.819 64.6011 105.998 65.4028 105.998 66.1129V66.595C105.927 67.3097 105.695 67.667 105.301 67.667H94.5792C94.9199 69.0956 95.4929 70.1134 96.298 70.7204C97.3072 71.5428 98.4148 71.9535 99.6211 71.9528C101.149 71.9528 102.507 71.2744 103.696 69.9176C103.851 69.8614 104.013 69.8253 104.178 69.8099C104.678 69.9535 104.928 70.2035 104.929 70.5601V70.7204C104.705 71.4626 103.847 72.2128 102.355 72.971C101.551 73.3538 100.672 73.5552 99.7815 73.5608H99.4045C97.1532 73.5608 95.2771 72.4537 93.776 70.2394C93.2038 69.1147 92.9177 68.061 92.9177 67.0784V66.7038C92.9177 64.4529 94.0254 62.5773 96.2407 61.0769C97.3668 60.5089 98.4213 60.2248 99.4045 60.2248ZM94.6331 66.0659H104.389C104.389 64.932 103.816 63.8604 102.67 62.851C101.677 62.173 100.641 61.8336 99.5603 61.8328C98.4145 61.8328 97.3247 62.2436 96.2912 63.0652C95.2897 64.0929 94.7893 64.879 94.7901 65.4234C94.7213 65.4226 94.669 65.6364 94.6331 66.0648V66.0659Z" fill="#3A0CA3"/>
<path d="M119.22 60.3187H119.596C121.337 60.3187 122.803 61.1758 123.991 62.89C124.474 63.7009 124.733 64.6253 124.742 65.5688V72.9103C124.626 73.3737 124.394 73.6058 124.045 73.6066H123.831C123.366 73.4913 123.133 73.2592 123.134 72.9103V66.4278C123.134 64.6427 122.705 63.4638 121.847 62.8911C121.182 62.2609 120.298 61.9149 119.381 61.9268C117.854 61.9268 116.71 62.7128 115.951 64.2849C115.772 64.695 115.683 65.2676 115.683 66.0029V72.9103C115.566 73.3737 115.333 73.6058 114.986 73.6066H114.77C114.306 73.4913 114.074 73.2592 114.074 72.9103V61.0689C114.189 60.6039 114.421 60.3714 114.77 60.3714H114.986C115.444 60.486 115.683 60.715 115.683 61.0689V61.7653C116.826 60.8009 118.005 60.3187 119.22 60.3187Z" fill="#3A0CA3"/>
<path d="M139.653 60.2248H139.921C142.387 60.2248 144.317 61.3858 145.71 63.7077C146.068 64.6011 146.247 65.4028 146.247 66.1129V66.595C146.175 67.3097 145.943 67.667 145.55 67.667H134.828C135.168 69.0956 135.741 70.1134 136.547 70.7204C137.557 71.5428 138.665 71.9535 139.87 71.9528C141.398 71.9528 142.756 71.2744 143.944 69.9176C144.1 69.8614 144.262 69.8253 144.427 69.8099C144.926 69.9535 145.177 70.2035 145.177 70.5601V70.7204C144.954 71.4626 144.096 72.2128 142.604 72.971C141.8 73.3538 140.921 73.5552 140.03 73.5608H139.655C137.403 73.5608 135.527 72.4537 134.027 70.2394C133.455 69.1147 133.169 68.061 133.169 67.0784V66.7038C133.169 64.4529 134.276 62.5773 136.492 61.0769C137.616 60.5089 138.67 60.2248 139.653 60.2248ZM134.882 66.0659H144.639C144.639 64.932 144.066 63.8604 142.92 62.851C141.927 62.173 140.89 61.8336 139.81 61.8328C138.664 61.8328 137.574 62.2436 136.54 63.0652C135.54 64.0929 135.04 64.879 135.039 65.4234C134.97 65.4226 134.918 65.6364 134.882 66.0648V66.0659Z" fill="#3A0CA3"/>
<path d="M155.019 60.2432H155.234C155.699 60.3585 155.931 60.5906 155.931 60.9395V62.5429C157.343 61.0098 159.005 60.2432 160.917 60.2432H161.077C161.542 60.3585 161.774 60.5906 161.774 60.9395V61.1537C161.774 61.6538 161.239 61.9039 160.17 61.9039C159.428 62.0646 158.721 62.3546 158.08 62.7605C157.311 63.4134 156.792 64.0208 156.525 64.5827C156.132 65.3593 155.935 66.4664 155.936 67.9041V72.7797C155.821 73.2435 155.592 73.476 155.238 73.476H155.024C154.56 73.3607 154.328 73.1286 154.327 72.7797V60.9303C154.44 60.4722 154.671 60.2432 155.019 60.2432Z" fill="#3A0CA3"/>
<path d="M173.455 60.1848H173.829C175.625 60.1848 177.233 60.9349 178.653 62.4353V62.488H178.707V60.9876C178.823 60.5241 179.055 60.292 179.403 60.2913H179.618C180.083 60.4081 180.315 60.6402 180.314 60.9876V73.365C180.314 74.8569 179.367 76.1072 177.474 77.1158C176.528 77.5333 175.506 77.7524 174.471 77.7595H174.096C171.416 77.6167 170.076 77.17 170.076 76.4195V76.2053C170.076 75.8129 170.343 75.5807 170.878 75.509L172.482 75.9911C173.121 76.0855 173.766 76.139 174.412 76.1515C175.886 76.1515 177.119 75.6514 178.111 74.6511C178.503 74.2228 178.7 73.6501 178.701 72.9332V71.2152H178.647C178.424 71.5817 177.995 71.9746 177.36 72.3937C176.214 73.1504 175.036 73.5287 173.829 73.5287H173.453C171.201 73.5287 169.325 72.4216 167.824 70.2073C167.253 69.0826 166.967 68.029 166.966 67.0463V66.6683C166.966 64.4174 168.074 62.5418 170.289 61.0414C171.417 60.4703 172.472 60.1848 173.455 60.1848ZM168.577 66.8859C168.577 68.8498 169.578 70.3856 171.579 71.4935C172.384 71.7798 173.08 71.9226 173.669 71.9219C175.636 71.9219 177.173 70.922 178.28 68.9223C178.566 68.1183 178.709 67.4216 178.709 66.8321C178.709 64.8683 177.708 63.3321 175.707 62.2234C174.902 61.9378 174.206 61.7951 173.617 61.7951C171.65 61.7951 170.113 62.7953 169.006 64.7958C168.719 65.5975 168.576 66.2942 168.577 66.8859Z" fill="#3A0CA3"/>
<path d="M188.903 60.4791H189.117C189.519 60.4791 189.894 61.0136 190.242 62.0825C190.707 63.0034 192.066 66.0041 194.317 71.0846H194.423C197.355 64.5297 198.927 61.0827 199.141 60.7437C199.275 60.6231 199.444 60.5481 199.623 60.5295H199.84C200.305 60.6448 200.538 60.8769 200.538 61.2258V61.44C200.43 61.7714 198.84 65.3077 195.766 72.049C194.837 74.29 194.122 75.8083 193.623 76.6039C192.834 77.5316 191.958 77.9954 190.993 77.9954H190.618C189.438 77.8893 188.795 77.5678 188.688 77.0311V76.7631C188.805 76.2996 189.037 76.0675 189.385 76.0667H189.599C190.171 76.2813 190.564 76.3886 190.778 76.3886C191.788 76.3886 192.538 75.6563 193.03 74.1919C193.317 73.6635 193.459 73.2882 193.459 73.066C190.064 65.6269 188.313 61.7328 188.205 61.3839V61.1697C188.322 60.7101 188.555 60.4799 188.903 60.4791Z" fill="#3A0CA3"/>
<path fill-rule="evenodd" clip-rule="evenodd" d="M21.8002 54.4731H0V65.3684C0.000303846 68.2576 1.14874 71.0284 3.19273 73.0714C5.23673 75.1144 8.00889 76.2623 10.8995 76.2626H21.8002V54.4731Z" fill="#7209B7"/>
<path fill-rule="evenodd" clip-rule="evenodd" d="M27.2511 54.4731V65.3684C27.2511 68.2577 28.3994 71.0287 30.4435 73.0717C32.4876 75.1148 35.2599 76.2626 38.1506 76.2626H49.0502V54.4731H27.2511Z" fill="#7209B7"/>
<path fill-rule="evenodd" clip-rule="evenodd" d="M54.5 54.4731V65.3684C54.5003 68.2578 55.6489 71.0288 57.6931 73.0718C59.7374 75.1148 62.5098 76.2626 65.4007 76.2626H76.3002V54.4731H54.5Z" fill="#7209B7"/>
<path fill-rule="evenodd" clip-rule="evenodd" d="M21.8002 49.026V27.2365H0V38.1307C0.000295707 41.0161 1.14555 43.7835 3.18456 45.826C5.22356 47.8685 7.98984 49.0193 10.8766 49.026H21.8002Z" fill="#B5179E"/>
<path fill-rule="evenodd" clip-rule="evenodd" d="M10.8995 21.7895H21.8002V0H0V10.8942C0.000303778 13.7835 1.1487 16.5544 3.19266 18.5976C5.23662 20.6407 8.00878 21.7889 10.8995 21.7895Z" fill="#F72585"/>
<path fill-rule="evenodd" clip-rule="evenodd" d="M54.5 38.1307C54.5003 41.0161 55.6456 43.7835 57.6846 45.826C59.7236 47.8685 62.4898 49.0193 65.3766 49.026H76.3002V27.2365H54.5V38.1307Z" fill="#B5179E"/>
<path fill-rule="evenodd" clip-rule="evenodd" d="M49.0502 49.026V27.2365H27.2511V38.1307C27.2511 41.016 28.3961 43.7834 30.4349 45.826C32.4737 47.8685 35.2399 49.0193 38.1266 49.026H49.0502Z" fill="#B5179E"/>
<path fill-rule="evenodd" clip-rule="evenodd" d="M27.2511 10.8942C27.2511 13.7836 28.3994 16.5547 30.4434 18.5979C32.4875 20.6411 35.2598 21.7892 38.1506 21.7895H49.0502V0H27.2511V10.8942Z" fill="#F72585"/>
<path fill-rule="evenodd" clip-rule="evenodd" d="M54.5 10.8942C54.5003 13.7837 55.6489 16.5548 57.6931 18.598C59.7373 20.6412 62.5097 21.7892 65.4007 21.7895H76.3002V0H54.5V10.8942Z" fill="#F72585"/>
<path d="M155.487 28.2891C156.365 28.2891 156.367 26.925 155.487 26.925C154.607 26.925 154.608 28.2891 155.487 28.2891Z" fill="white"/>
<path d="M150.338 25.0147C151.216 25.0147 151.217 23.6517 150.338 23.6517C149.459 23.6517 149.458 25.0147 150.338 25.0147Z" fill="white"/>
</g>
<defs>
<clipPath id="clip0_803_28">
<rect width="394" height="78" fill="white"/>
</clipPath>
</defs>
</svg>
